<?xml version="1.0" encoding="utf-8"?>
<!-- Generator: Adobe Illustrator 24.0.1, SVG Export Plug-In . SVG Version: 6.00 Build 0)  -->
<svg version="1.1" id="圖層_1" xmlns="http://www.w3.org/2000/svg" xmlns:xlink="http://www.w3.org/1999/xlink" x="0px" y="0px"
	 viewBox="0 0 112 111" style="enable-background:new 0 0 112 111;" xml:space="preserve">
<style type="text/css">
	.st0{fill:#0D1532;}
	.st1{fill:none;}
</style>
<g>
	<path class="st0" d="M56.38,111.3c-30.75,0-55.77-25.02-55.77-55.77S25.63-0.24,56.38-0.24s55.77,25.02,55.77,55.77
		S87.13,111.3,56.38,111.3z M56.38,1.97C26.85,1.97,2.82,26,2.82,55.53s24.03,53.56,53.56,53.56c29.53,0,53.56-24.03,53.56-53.56
		S85.91,1.97,56.38,1.97z"/>
	<path class="st1" d="M90.06,59.39c0.05-0.4,0.08-0.8,0.11-1.21C90.14,58.59,90.11,58.99,90.06,59.39z"/>
	<path class="st1" d="M88.95,64.96c0.16-0.55,0.3-1.12,0.44-1.68C89.25,63.85,89.11,64.41,88.95,64.96z"/>
	<path class="st1" d="M88.85,65.31c-0.97,3.23-2.41,6.27-4.25,9.01c0.39-0.7,0.78-1.39,1.18-2.07
		C87.06,70.09,88.09,67.76,88.85,65.31z"/>
	<path class="st1" d="M89.6,62.38c0.12-0.59,0.22-1.18,0.31-1.78C89.82,61.19,89.72,61.79,89.6,62.38z"/>
	<path d="M88.85,65.31c0.04-0.12,0.07-0.23,0.1-0.35C88.91,65.08,88.88,65.2,88.85,65.31z"/>
	<path d="M89.39,63.28c0.07-0.3,0.15-0.6,0.21-0.9C89.53,62.68,89.46,62.98,89.39,63.28z"/>
	<path d="M89.91,60.59c0.06-0.4,0.11-0.8,0.15-1.2C90.02,59.8,89.97,60.2,89.91,60.59z"/>
	<path d="M90.17,58.18c0.03-0.35,0.06-0.71,0.07-1.07C90.23,57.47,90.2,57.83,90.17,58.18z"/>
	<path class="st0" d="M90.07,51.93c-1.68-14.89-13.76-26.94-28.66-28.59c-1.24-0.14-2.46-0.18-3.68-0.18l0.01-0.02
		c0,0-21.65-1.06-24.01,8.49c0,0-17.74,2.9-13.59,22.2c0,0,6.22-12.97,17.01-6.95c1.9,1.06,3.13,2.42,3.88,3.97
		c1.56,3.28,0.94,7.22-0.56,11c-2.23,5.62-3.23,11.99-3.43,18.47c-0.06,1.91,0.9,3.74,2.56,4.69c4.94,2.82,10.66,4.44,16.76,4.44
		c11.77,0,22.14-6,28.22-15.11c0.39-0.7,0.78-1.39,1.18-2.07c1.28-2.17,2.31-4.49,3.07-6.94c0.04-0.12,0.07-0.23,0.1-0.35
		c0.16-0.55,0.3-1.12,0.44-1.68c0.07-0.3,0.15-0.6,0.21-0.9c0.12-0.59,0.22-1.18,0.31-1.78c0.06-0.4,0.11-0.8,0.15-1.2
		c0.05-0.4,0.08-0.8,0.11-1.21c0.03-0.35,0.06-0.71,0.07-1.07C90.32,55.42,90.27,53.69,90.07,51.93z M48.01,33.76
		c-3.41,0.73-4.4,0.03-5.06-2.02l10.21-2.47C53.16,29.27,51.42,33.03,48.01,33.76z"/>
</g>
</svg>
