<?xml version="1.0" encoding="utf-8"?>
<!-- Generator: Adobe Illustrator 24.1.3, SVG Export Plug-In . SVG Version: 6.00 Build 0)  -->
<svg version="1.1" id="圖層_1" xmlns="http://www.w3.org/2000/svg" xmlns:xlink="http://www.w3.org/1999/xlink" x="0px" y="0px"
	 viewBox="0 0 216.4 43.4" style="enable-background:new 0 0 216.4 43.4;" xml:space="preserve">
<style type="text/css">
	.st0{fill:#E0E0E0;}
	.st1{fill:none;}
</style>
<path class="st0" d="M34.1,37c-8.4,0-15.3-6.8-15.3-15.3S25.7,6.4,34.2,6.4s15.3,6.8,15.3,15.3C49.4,30.1,42.6,37,34.1,37z M34.1,7
	C26,7,19.5,13.6,19.5,21.7s6.6,14.6,14.7,14.6s14.6-6.6,14.6-14.7C48.9,13.6,42.3,7,34.1,7C34.2,7,34.2,7,34.1,7z"/>
<path class="st0" d="M82.8,32.9V10.7h12.4v4.9h-7v3.8h6.6v4.8h-6.7V28h7v5L82.8,32.9z M115.6,17.6v15.3h-4.5v-2.5
	c-0.5,0.9-1.3,1.7-2.2,2.3c-2.5,1.4-5.6,0.8-7.3-1.5c-1.2-1.8-1.8-3.9-1.7-6c-0.1-2.1,0.5-4.2,1.8-5.9c1.1-1.5,2.9-2.3,4.8-2.2
	c1,0,1.9,0.2,2.7,0.7c0.8,0.6,1.5,1.3,2,2.3v-2.5H115.6z M111.3,25.2c0.1-1-0.3-2-0.9-2.8c-0.6-0.7-1.5-1-2.4-1
	c-0.9-0.1-1.8,0.3-2.4,1c-0.6,0.8-0.9,1.8-0.9,2.8c-0.1,1,0.3,2,0.9,2.8c1.2,1.3,3.3,1.4,4.6,0.2c0.1,0,0.1-0.1,0.2-0.2
	C111,27.3,111.3,26.3,111.3,25.2z M127.6,32.9l-8.5-22.2h5.9l4,12.4c0,0.1,0.1,0.5,0.2,1s0.3,1.2,0.4,2c0.1-0.7,0.3-1.3,0.4-1.8
	s0.2-0.9,0.3-1.1l4-12.4h5.9l-8.4,22.3h-4.2V32.9z M143.6,12.8c0-0.8,0.3-1.5,0.8-2.1c1-1.1,2.6-1.1,3.7-0.2
	c0.1,0.1,0.1,0.1,0.2,0.2c0.5,0.6,0.8,1.3,0.8,2.1s-0.3,1.6-0.8,2.1c-0.5,0.6-1.2,0.9-1.9,0.9s-1.4-0.3-1.9-0.9
	C143.9,14.4,143.6,13.6,143.6,12.8L143.6,12.8z M143.9,32.9V17.6h5v15.3H143.9z M153.4,31.6l1-4.1c0.7,0.7,1.5,1.2,2.5,1.6
	c0.8,0.4,1.7,0.6,2.6,0.6c0.5,0,1-0.1,1.4-0.3c0.3-0.2,0.5-0.6,0.5-1c0-0.7-0.6-1.2-2-1.5l-1-0.3c-1.2-0.3-2.3-0.9-3.2-1.8
	c-0.7-0.8-1-1.8-1-2.8c-0.1-1.4,0.5-2.7,1.5-3.6c1.2-1,2.7-1.4,4.2-1.3c0.9,0,1.8,0.1,2.7,0.3c1,0.2,1.9,0.6,2.9,1.1l-1,3.7
	c-0.6-0.5-1.3-0.8-2-1.1c-0.6-0.2-1.3-0.4-2-0.4c-0.4,0-0.9,0.1-1.3,0.3c-0.3,0.2-0.4,0.5-0.4,0.8c0,0.5,0.6,1,1.9,1.4l0.7,0.2
	c1.3,0.3,2.5,1,3.5,1.9c0.7,0.8,1.1,1.9,1,2.9c0.1,1.5-0.6,2.8-1.6,3.8c-1.2,1-2.8,1.5-4.4,1.4c-1.2,0-2.3-0.1-3.4-0.5
	C155.4,32.7,154.4,32.3,153.4,31.6L153.4,31.6z M170.4,12.8c0-0.8,0.3-1.5,0.8-2.1c1-1.1,2.6-1.1,3.7-0.2c0.1,0.1,0.1,0.1,0.2,0.2
	c0.5,0.6,0.8,1.3,0.8,2.1s-0.3,1.6-0.8,2.1c-0.5,0.6-1.2,0.9-1.9,0.9s-1.4-0.3-1.9-0.9C170.7,14.4,170.5,13.6,170.4,12.8L170.4,12.8
	z M170.7,32.9V17.6h4.9v15.3H170.7z M196.3,25.3c0,2.2-0.8,4.2-2.3,5.8c-0.7,0.8-1.6,1.4-2.5,1.8c-0.9,0.4-2,0.6-3,0.6
	c-2.1,0-4-0.9-5.4-2.4c-0.7-0.8-1.3-1.7-1.7-2.6c-0.4-1-0.6-2.1-0.6-3.2s0.2-2.2,0.6-3.2c0.4-1,1-1.9,1.7-2.7
	c0.7-0.8,1.6-1.4,2.5-1.8c1.9-0.8,4.1-0.8,6.1,0c0.9,0.4,1.8,1,2.5,1.8c0.8,0.8,1.4,1.7,1.8,2.7C196.3,23.2,196.4,24.2,196.3,25.3
	L196.3,25.3z M191.4,25.3c0.1-1-0.2-1.9-0.8-2.7c-1-1.2-2.8-1.3-4-0.3c-0.1,0.1-0.2,0.2-0.3,0.3c-0.6,0.8-0.8,1.7-0.8,2.7
	c-0.1,1,0.2,1.9,0.8,2.7c1,1.2,2.8,1.3,4,0.3c0.1-0.1,0.2-0.2,0.3-0.3C191.3,27.2,191.6,26.3,191.4,25.3L191.4,25.3z M201.3,32.9
	V17.6h4.6v3.1c0.5-1.1,1.3-2,2.3-2.7c0.9-0.6,2-0.9,3.1-0.9c0.8,0,1.7,0.1,2.4,0.5c0.7,0.3,1.3,0.8,1.7,1.4s0.7,1.2,0.8,1.9
	c0.2,1.1,0.3,2.2,0.2,3.3V33h-4.9v-8.2c0.1-0.9-0.1-1.8-0.6-2.7c-0.4-0.6-1.1-0.9-1.8-0.8c-0.9-0.1-1.8,0.4-2.2,1.2
	c-0.5,1.3-0.8,2.6-0.7,4v6.4H201.3z"/>
<path class="st1" d="M43.4,22.7v-0.3V22.7z"/>
<path class="st1" d="M43.1,24.3c0-0.2,0.1-0.3,0.1-0.5C43.2,24,43.1,24.1,43.1,24.3z"/>
<path class="st1" d="M43,24.4c-0.3,0.9-0.7,1.7-1.2,2.5l0.3-0.6C42.5,25.7,42.8,25,43,24.4z"/>
<path class="st1" d="M43.2,23.6c0-0.2,0.1-0.3,0.1-0.5C43.3,23.2,43.3,23.4,43.2,23.6z"/>
<path d="M43,24.4L43,24.4L43,24.4z"/>
<path d="M43.2,23.8l0.1-0.2L43.2,23.8z"/>
<path d="M43.3,23.1c0-0.1,0-0.2,0-0.3C43.4,22.8,43.3,23,43.3,23.1z"/>
<path d="M43.4,22.4c0-0.1,0-0.2,0-0.3C43.4,22.2,43.4,22.3,43.4,22.4z"/>
<path class="st0" d="M12.5,21.7C12.5,9.7,22.2,0,34.1,0s21.7,9.7,21.7,21.7s-9.7,21.7-21.7,21.7l0,0C22.2,43.3,12.5,33.6,12.5,21.7z
	 M16.8,21.7c0,9.6,7.8,17.4,17.3,17.4c9.6,0,17.4-7.8,17.4-17.3S43.8,4.3,34.2,4.3l0,0C24.6,4.4,16.8,12.1,16.8,21.7z M6.8,31.6
	C4,28.7,1.7,25.3,0,21.7c1.7-3.7,4-7,6.8-9.9C4.5,18.2,4.5,25.2,6.8,31.6z M63.2,21.7c0,3.4-0.6,6.8-1.8,9.9
	c2.8-2.9,5.1-6.3,6.8-9.9c-1.7-3.7-4-7-6.8-9.9C62.6,14.9,63.2,18.3,63.2,21.7z"/>
<path class="st0" d="M43.4,20.7c-0.5-4.1-3.7-7.3-7.8-7.8c-0.3,0-0.7,0-1,0l0,0c0,0-5.9-0.3-6.6,2.3c0,0-4.9,0.8-3.7,6.1
	c0,0,1.7-3.6,4.7-1.9c0.5,0.2,0.8,0.6,1.1,1.1c0.4,1,0.3,2.1-0.1,3c-0.6,1.6-0.9,3.3-0.9,5c0,0.5,0.2,1,0.7,1.3
	c4.2,2.4,9.6,1.1,12.3-2.9l0.3-0.6c0.4-0.6,0.6-1.2,0.8-1.9v-0.1c0-0.2,0.1-0.3,0.1-0.5l0.1-0.2c0-0.2,0.1-0.3,0.1-0.5s0-0.2,0-0.3
	v-0.3c0-0.1,0-0.2,0-0.3C43.4,21.6,43.4,21.2,43.4,20.7z M31.9,15.7c-0.9,0.2-1.2,0-1.4-0.6l2.8-0.7C33,15.1,32.5,15.5,31.9,15.7z"
	/>
</svg>
